<?xml version="1.0" encoding="utf-8"?>
<!-- Generator: Adobe Illustrator 19.0.0, SVG Export Plug-In . SVG Version: 6.00 Build 0)  -->
<svg version="1.1" id="Layer_1" xmlns="http://www.w3.org/2000/svg" xmlns:xlink="http://www.w3.org/1999/xlink" x="0px" y="0px"
	 viewBox="0 0 920.5 283.7" style="enable-background:new 0 0 920.5 283.7;" xml:space="preserve">
<style type="text/css">
	.st0{fill:#28ABDE;}
	.st1{fill:#48A6CD;}
	.st2{fill:#3FA4CD;}
	.st3{fill:#46A4CC;}
	.st4{fill:#29ABDE;}
	.st5{font-family:'OxideSolidWeb-BoldW03-Rg';}
	.st6{font-size:110.4978px;}
	.st7{font-size:22.7996px;}
</style>
<g>
	<g>
		<g>
			<g>
				<path class="st0" d="M159.9,5c4.1-5.4,12.5-6.5,18-2.6c2.9,1.8,4.4,4.9,5.4,8c11.6,0,23.1,0,34.7,0c1.7-0.3,2.9,0.8,3.7,2.1
					c6.7,9.8,16.2,19.3,28.5,20.7c1.8,4.1,2.8,8.4,4,12.7c8,29.7,12.1,60.8,8.6,91.4c-0.3,2.2,0.6,6-2.5,6.4
					c-8.3,0.1-16.5,0-24.8,0.1c-0.7,3.1-1.2,6.2-1.7,9.3c-0.1,0.1-0.2,0.4-0.3,0.5c-5.6,27.5-21.2,52.6-42.4,70.8
					c-15.6,13.5-33.9,23.9-53.5,30.3c-17.1-5.2-33-14-47.2-24.8c-22.8-17.4-40.4-42.1-47.7-70.1c-0.6-1.5,0.4-3.4,2.1-3.4
					c8-0.1,16.1,0,24.1-0.1c1.6,0,3.2-0.1,4.7,0.4c1,1.4,1.4,3.1,1.9,4.7c5.2,16.4,15.8,30.9,29.3,41.5c9.1,7.3,19.5,13.1,30.5,17.1
					c1.7,0.9,3.4-0.2,5-0.7c19.9-7.8,37.9-21.3,49.2-39.5c3.8-6.2,7.1-12.7,8.9-19.8c-6.5-1.7-11.3-8.9-9-15.5
					c2.3-8,12.9-11.6,19.7-6.9c6,3.4,7.6,12.2,3.4,17.6c-2,2.9-5.4,4.4-8.7,5.3c-3.4,10.9-8.5,21.4-15.7,30.3
					c-12.4,15.5-29.4,27.3-48.2,33.9c-2.5,1.1-5.3,0.6-7.7-0.4c-22.4-8.6-42.6-24.1-54.5-45.2c-3.3-5.6-5.6-11.8-7.8-17.9
					c-7.1,0-14.2,0-21.3,0c0.7,3.7,2.1,7.2,3.5,10.7c8.5,21.5,23.6,40.2,42,54.1c13.1,9.9,27.7,18,43.3,23.2
					c26.4-9.1,50.6-25.3,67.9-47.3c13.4-17.1,22-37.8,24.9-59.3c0.3-1.6,0.5-4,2.6-4c8.2-0.1,16.5,0,24.7,0
					c0.8-3.8,0.4-7.8,1.4-11.6c2-5.2,0.9-10.9,1.1-16.3c-0.2-3.7,0.6-7.7-1.3-11.2l-0.2-0.5c-1.6-20.8-5.7-41.3-11.8-61.3
					c-12-2.6-21.4-11.4-28.2-21.1c-1.1-1.8-3.4-1.2-5.1-1.3c-9.9,0.1-19.8-0.1-29.7,0.1c-1.6,1.6-2.1,4-3.8,5.5
					c-4.7,5.1-13.5,5.3-18.5,0.5C156.6,17.4,156,9.7,159.9,5z M166.8,5.8c-3,1.3-5.2,4.8-4.3,8c0.8,3.5,4.2,6.1,7.8,6
					c4.6,0.3,9.2-4.5,7.7-9.1C176.8,6.1,171,3.6,166.8,5.8z M199.5,140.9c-4.5,1.1-7.3,6.9-4.6,10.8c3.3,5.4,12.9,4.4,14.6-1.9
					C211.2,144.1,204.8,139.1,199.5,140.9z"/>
			</g>
			<g>
				<path class="st0" d="M117.3,33.6c5.6-2.8,13-0.7,16.4,4.5c3,4.2,2.8,10.4-0.6,14.4c-3.7,4.7-10.8,6.2-16.2,3.5
					c-4.3-2-6.9-6.4-7.4-11.1c-11.5,0-23,0-34.5,0c-4.3,5.8-9.3,11.4-15.8,14.8c-2.1,1.2-4.5,1.7-6.7,2.7c-1,1.8-1.3,3.9-1.9,5.9
					c-6.2,23.1-9.7,47.4-6.7,71.3c0.5,1.8-0.3,4.2-2.5,4.1c-7.9,0.1-15.9-0.1-23.8,0.1c3.8,23,12.1,45.3,25.2,64.6
					c19.6,29.3,48.7,51.5,81,65.3c3.8,1.6,7.7,3.2,11.6,4.4c2.3,0.8,4.6-0.4,6.8-1.1c28.1-10.6,54.1-27.4,74.4-49.6
					c14-15.3,25.2-33.3,32.1-52.9c-3.3-3-6.6-6.8-6.2-11.6c0.3-7.6,8.5-13.4,15.9-11.5c6,1.1,10.8,6.9,10,13.1
					c-0.2,7.4-7.9,12.4-14.8,11.5c-8.8,24.9-24.2,47.2-43.6,65.1c-20,18.5-44,32.8-69.7,41.9c-2.2,1.1-4.7,0.8-7-0.2
					c-29.8-10.5-57.3-27.9-78.8-51.1c-23.2-24.8-38.2-57-42.4-90.7c-0.3-1.8,1.9-2.7,3.3-2.5c7.7-0.1,15.3,0.1,23-0.1
					c-3-26,1.2-52.3,8.6-77.3c0.4-1.1,0.6-2.5,1.5-3.3c2.3-0.9,4.8-1.1,7-2.3c6.1-2.9,10.9-8,14.6-13.5c0.8-1,1.5-2.5,3-2.2
					c12.3-0.1,24.6-0.1,36.9,0C112.4,37.4,114.4,34.8,117.3,33.6z M120,37.9c-4.5,1.4-6.6,7.5-3.6,11.2c3.6,4.9,12.8,3.6,14.2-2.6
					C132.2,40.7,125.3,35.8,120,37.9z M253.4,156.5c-4.9,1.1-7.4,7.8-3.8,11.6c3.7,4.8,12.5,3.2,14-2.8
					C265.1,159.6,258.7,154.7,253.4,156.5z"/>
			</g>
		</g>
		<g>
			<path class="st1" d="M235.6,100.6c-1.6-13.5-4.6-26.7-8.4-39.7c-0.5-1.4-0.8-3.3-2.6-3.5c-9.9-1.6-16.8-9.7-22.2-17.5
				c-17.6-0.3-35.1,0.1-52.7-0.2c-0.2-0.2-0.5-0.5-0.7-0.7c-0.3-8.9,0.1-17.9-0.2-26.8c-0.1-1.7-2.2-2.1-3.5-2
				c-27.9,0-55.8,0-83.6,0c-2.4,0-4.7-0.1-7.1,0.2c-2,1.7-3.2,4.1-4.9,6.1C45,22.7,39.1,28.3,31.8,31.3c-2.4,1-5,1.2-7.4,2.1
				c-1.4,2.1-1.8,4.7-2.5,7c-6.3,21.8-10.4,44.4-11.2,67.1c-4.8,1.1-9.2,4.6-10.3,9.6c-2.1,7.5,4.7,15.3,12.2,15.2
				c7.7,0.6,15.1-7,13.3-14.7c-0.9-5-5.1-8.7-10-10c0.4-23.7,5.3-47.2,12.1-69.8c11.3-2.5,20.4-10.6,27.1-19.7c1-1.1,1.7-3,3.5-2.7
				c26.6,0,53.2,0,79.7,0c1.9,0,3.8,0.1,5.7,0.2c0,8.6,0,17.1,0,25.7c0,1.2-0.1,2.7,1.1,3.4c1.1,0.3,2.2,0.3,3.3,0.3
				c17,0,34,0,50.9,0c5.7,7.7,12.9,15.2,22.7,17.3c5.8,18.9,9.4,38.6,9.6,58.4c-5.3,0.6-10.7,0.2-16.1,0.3c-5.7-0.1-11.3,0.2-17-0.3
				c0.2-4.4-0.1-9.7-4.2-12.4c-5.9-3.6-13.1-2.4-19.6-2.7c-0.2-10.5-2.9-21.4-9.5-29.7c-6.7-8.8-17.8-13.4-28.6-13.9
				c-10.3,0.5-20.7,4.7-27.5,12.6c-7.3,8.5-10.3,20-10.5,31.1c-6.7,0.4-14.3-1-20.1,3.1c-4.8,3.6-3.5,10.3-3.7,15.5
				c-2.4,0.9-4.8,2-6.6,3.9c-3.3,3.1-3.9,8.1-2.7,12.3c1.8,5.1,7.2,8.7,12.6,8.3c7.8,0.4,14.6-7.8,12.3-15.4
				c-1.2-5-5.7-8.1-10.4-9.4c-0.3-2.8-0.2-5.6,0-8.4c0.2-2.4,2.6-3.7,4.7-4.2c5.3-0.8,10.8-0.1,16.2-0.5c1.3-0.1,2.7-1.1,2.6-2.6
				c0.2-10.2,2-21,8.5-29.2c5.9-7.5,15.3-11.6,24.7-11.9c10.1,0.3,20.3,5.2,26,13.7c5.5,8,7,17.9,7.3,27.4c-0.2,1.5,1.2,2.5,2.5,2.5
				c5.2,0.3,10.5-0.3,15.7,0.4c2.1,0.3,4,1.4,5.2,3.2c1.5,3.1,1.1,6.7,1.4,10.1c6.9,0.5,13.9,0.1,20.9,0.2
				c6.7-0.1,13.4,0.2,20.1-0.2c-0.1-4.2-0.2-8.5,0.6-12.7C236.7,108,236,104.3,235.6,100.6z M19.5,115.5c2.6,3.1,1.6,8.3-1.9,10.4
				c-4,2.9-10.3,1-12.1-3.6c-1.6-3.9,1.2-8.4,5.1-9.5C13.8,111.9,17.5,112.9,19.5,115.5z M85.8,135.7c0.7,4.9-4.6,8.9-9.2,8
				c-3.4-0.6-6.6-3.5-6.6-7.2c-0.2-2.7,1.7-5.1,3.9-6.5C78.4,127.3,85.4,130.2,85.8,135.7z"/>
			<path class="st1" d="M159.8,96.7c-1.2-13.2-15.9-23.1-28.6-19.5c-9,2.2-16.6,10.2-17.5,19.5l-0.6,11.7c0,1.7,1.9,2.7,3.4,2.5
				c13.5,0,27.1,0,40.7,0c1.9,0.3,3.7-1.4,3.4-3.3L159.8,96.7z M119.6,93.7c2-5.2,6.3-9.5,11.6-11.1c8.6-3.3,19.1,2,22.4,10.4
				c2,3.9,1.6,8.4,1.6,12.6c-12.3,0-24.6,0-36.9,0C118.4,101.6,117.8,97.4,119.6,93.7z"/>
		</g>
		<g>
			<path class="st2" d="M258.7,99.5c1.9,3.4,1.1,7.4,1.3,11.2c-0.2,5.4,0.9,11.1-1.1,16.3C259,117.8,259,108.7,258.7,99.5z"/>
		</g>
		<g>
			<path class="st3" d="M236.4,111.7c0.7,3.8,0.7,7.7,0.6,11.5c0.1,1.1-0.9,1.9-1.4,2.8c-13.1-0.2-26.3,0-39.4-0.1
				c-1.4,0.1-2.6-1.3-2.5-2.6c-0.1-3,0-5.9-0.1-8.9c1.5,3.1,1.1,6.7,1.4,10.1c6.9,0.5,13.9,0.1,20.9,0.2c6.7-0.1,13.4,0.2,20.1-0.2
				C235.7,120.2,235.6,115.9,236.4,111.7z"/>
		</g>
		<g>
			<g>
				<path class="st4" d="M132.2,119.5c7-2.6,15.6,0.5,19.2,7.1c4.3,7.7,1.1,17.7-4.9,23.6c1.1,9.5,2.5,19,3.7,28.4
					c0.6,1.9-1.3,3.6-3.2,3.4c-6,0.1-12,0-18,0c-1.5,0.1-3-0.4-4.5-0.8c-0.1-1.7-0.1-3.4,0.1-5.1c1.1-8.8,2.4-17.6,3.4-26.4
					c-4.2-3.7-6.9-9.2-6.6-14.9C121.4,128.2,126,121.9,132.2,119.5z M126.9,138.7c0.8,3.7,3.4,6.6,6.4,8.7
					c-0.8,9.9-2.6,19.6-3.5,29.4c4.9,0,9.8,0,14.7,0c-0.6-9.7-2.7-19.2-3.3-28.9c4.5-3.4,7.4-8.8,7-14.5c-0.3-6.5-7.6-11.3-13.7-9.3
					C128.7,125.9,125,132.8,126.9,138.7z"/>
			</g>
		</g>
	</g>
	<text transform="matrix(1 0 0 1 301.3371 147.8412)" class="st0 st5 st6">DUALGATE</text>
	<text transform="matrix(1 0 0 1 314.3743 190.7796)" class="st5 st7">A SECURE OAUTH WITH INTEGRATED MFA SYSTEM</text>
</g>
</svg>
